<mxfile host="65bd71144e">
    <diagram id="WC_UF4VlgA0SFL1XSeWq" name="Page-1">
        <mxGraphModel dx="2670" dy="1082" grid="0" gridSize="10" guides="1" tooltips="1" connect="1" arrows="1" fold="1" page="0" pageScale="1" pageWidth="850" pageHeight="1100" math="0" shadow="0">
            <root>
                <mxCell id="0"/>
                <mxCell id="1" parent="0"/>
                <mxCell id="2" value="main.tf" style="shape=note;whiteSpace=wrap;html=1;backgroundOutline=1;darkOpacity=0.05;rounded=1;strokeColor=light-dark(#000000,#5881BA);strokeWidth=2;fontFamily=Shantell Sans;fontSource=https://fonts.googleapis.com/css?family=Shantell+Sans;fontSize=18;fontColor=light-dark(#000000, #b8b8ba);fillColor=light-dark(#FFFFFF,transparent);" parent="1" vertex="1">
                    <mxGeometry x="-109" y="137" width="80" height="100" as="geometry"/>
                </mxCell>
                <mxCell id="3" value="" style="rounded=0;whiteSpace=wrap;html=1;strokeColor=light-dark(#000000,#5881BA);strokeWidth=2;fontFamily=Shantell Sans;fontSource=https://fonts.googleapis.com/css?family=Shantell+Sans;fontSize=18;fontColor=light-dark(#000000, #b8b8ba);fillColor=light-dark(#FFFFFF,transparent);" parent="1" vertex="1">
                    <mxGeometry x="186" y="108" width="361" height="191" as="geometry"/>
                </mxCell>
                <mxCell id="4" value="&amp;nbsp;Terraform" style="text;strokeColor=none;align=center;fillColor=none;html=1;verticalAlign=middle;whiteSpace=wrap;rounded=0;fontFamily=Shantell Sans;fontSource=https://fonts.googleapis.com/css?family=Shantell+Sans;fontSize=18;fontColor=light-dark(#000000, #b8b8ba);" parent="1" vertex="1">
                    <mxGeometry x="274.00216796875" y="122.99672973632812" width="60" height="30" as="geometry"/>
                </mxCell>
                <mxCell id="5" value="" style="shape=image;verticalLabelPosition=bottom;verticalAlign=top;imageAspect=0;aspect=fixed;image=data:image/gif,R0lGODlhcACAAMZRANITa9MTa9QTbNUTbOQVLOUVLOcVLNIT0tMT09QT1NUT1eoYeeoZeeoZeusaeuoY6uoZ6usa6+wpPuwpP+wqP+wqQOwrQOwrQcBSD8FSD8JSD7pC+MNTD7pD+LpE+N5eEd5fEd9fEeBfEcFW+eBgEcFX+cJX+cJY+Wea/Gia/Gib/Gmb/Hel/Hil/Hml/Hmm/OKaFOKbFOObFOScFOynJuyoJ+yoKKrCXKrDXavDXrPJbbPJbrTJbrTJb/jCXPjDXfjDXvnJbfnJbvnJb2P+X2T+YGX+YHP+cHT+cHT+cXX+cWf+/Gj+/Gn+/Hf+/Hj+/Hn+/ACJ1gCJ1gCJ1gCJ1gCJ1gCJ1gCJ1gCJ1gCJ1gCJ1gCJ1gCJ1gCJ1gCJ1gCJ1gCJ1gCJ1gCJ1gCJ1gCJ1gCJ1gCJ1gCJ1gCJ1gCJ1gCJ1gCJ1gCJ1gCJ1gCJ1gCJ1gCJ1gCJ1gCJ1gCJ1gCJ1gCJ1gCJ1gCJ1gCJ1gCJ1gCJ1gCJ1gCJ1gCJ1gCJ1gCJ1iH/C05FVFNDQVBFMi4wAwEAAAAh/hFDcmVhdGVkIHdpdGggR0lNUAAh+QQJBgB/ACwAAAAAcACAAAAH/oBIf4OEhYaHiImKi4yNjo+HR0hKkJWWl5iZhUecgpqfoKGWnKSeoqeop6Srpqmur4+rrK2wtbaDsrK0t7youb+9waq/urvCx7HEucbIzYnKxMzO03/QytLUx9bX2Nm829be0+DW3eKu5Nvm56Lp6knst+7g6/GY8+T19pD46fr7jPr5AxhKYD6CoAzSQ/hJobpC/wgSKeKw3CZJDBcVITKxIrRWrDIe2siRosdoF0tFdEaSY8eTv0AuY+iy5kuYulLOtFekpU2TOEMSsnjOp82bQTvpjEaJ2tGnQJNiHLqwmdGnJaWWWkq0lxGsWKMmlelupaWrYLNqnYoLHxKz/o3SphUblKzbVHLl0sVptx/cQhPzzl3LtprDt5oE590Ls6/BlYoFMz7pWGE9tJGPFvmDRGvlw4wwZ/45SEnnulw9Ih45WvFmQqcbp4YJuHXk17MFfj5ZSLRt0ohiW87tsfdvyYregqaq1fhxvYyE32Uu1flzsLgXSR9IPan161AhbX/YPeh38MAfjf9IvOJ59C6zq+fetjkh39fli69av/p9+OFlohx75eH0HoD6WbKeUgXS9h+A6X2y3m7FPQhhfL7s1J93Fl44USoDMriheR1emCAosVHoXokQnhhKZyo6dCB8LooSo0IzolcjOmvlCN6OqRDmY37HLLjiIPhd/odMiAayqCM1Rgo0pG3nRDnPlJkBKQyTODr5mzfGWAkOltCJUxhEMnoZmRHsbBWcQWRiZU9OhyQhZi5x1qQlMhoacucqeXKEEEpvppPnns4QeMidcYpUjjGmbTMlotnw52c4an4oUoPEJLLgjD1t2l6fhESKp5OUtjnPJIUCWmKq8ejmqatIYijqM4/NeoRzsO5TkTF2GndrQL/+NeyIuR6bCWrKjlKXsY5KBS1DQjbbSLXWLoJttrjax223/n2LyLbijtpluYaQi65h3q6LrIPuvstbvPJWSK+66OJbrr7i8vutv9wCnK3A1hLcLJfw0stZuAoP8ic5DS+acMQOPz+sDMXjHonxpXBuHJzFpHicXD8ia3dlySZDjLJ2Yq7ciJUuO2JkzPMBQ7PM2928H606yxxyz5V0BrSCQzMUCAAh+QQJBgB/ACwAAAAAcACAAAAH/oBPf4OEhYaHiImKi4yNjo+HTk9QkJWWl5iZhU6cgpqfoKGWnKSeoqeop6Srpqmur4+rrE6wtbaRsqy3u7W5vrzAqr6/wcWYw76txsuMyMjM0IrOyMrR0NPU1dbF2NPb193O2t+24djj5K7m5+jpouvd7e6f8OHy85f15vf4sfr2/UL9AxiQ3sBzBQ0eFFeIX8I/S5gsnNaq00NFTJZEnMiQkK6LhTJqlMhxWEVWDq2J1LixZLJNuVIuY0mzpUtZJ1/OY7KyJsmbHwdRTNezpk2gFj1SpBTNqNOfSCXBRLisqNORUUtNjResydWrUJHm3LfL6lesWaUqhfeE1quz/mfDAh3LNhVcuHJv0q0nM1HEu3HTqhXKURPgu3ld7v3XF+JhxIIXH3xk9rFRJn/SSj4or7Jln4OgRN3MWZvnz6AJtdW7FWkh1JYxG2K9NmpI2Idl45pIeuJt3IgVPVk9sPfC38DjMiKuz/hkQqeTR3TEfJ3zgcilP4VUnWtt19C1f9VNve53oNnF0yT/qDu11ujDq7+ciSDhrOnnT880fOj5m/nNx94l7mn1n0sBqjcgJgVe90+C4i1YX0zwASiffixJyB9zDuoDoXYaakJch/V8KF2IBpEIj4nJoQiKiuuwCJyLqAgmI240CoPfhRjuB0yBhfHYozFp3fhZjq8A/omdkOKRo2SJTLboTn9BDhKdZdto82Q4Ro5HzmCGbOlNlJY1kY6Bh4g5TJdGzYMTImrmwuZI/VAIJ5RWolaQSYnE6VaejyG5TEe7YWPkRRRpA8WWLAoaDZeIGEomnSDd102fz5DJU6UHvnfIosQAmhqnlprDVJhyCumoO4wlIgtyq7pZHKZ//iFSrLJyBmcrGZG6CEfD+aoQb8JOqFixo9iGrCNZNcapjcv+WmS00kxLbaTWXjtbttp2WmW33voGboUIjhvuceaWGl+60LLLLbjtmhvvuPPC+2639eJ7r7b58rvvtVSCl+4gfpoz8LYWHtxQuQov/G3D514K8Z1LNU6cZsGkWCychxpvHGPH0kIKsnBijtwIoyaf7EzK7a3JMnXdvczdqzLPzEnNlrSFc847JxQIACH5BAkGAH8ALAAAAABwAIAAAAf+gC1/g4SFhoeIiYqLjI2Oj4csLS6QlZaXmJmFLJyCmp+goZacpJ6ip6inpKumqa6vj6usLLC1tpGyrLe7tbm+vMCqvr/BxZjDvq3Gy4zIyMzQis7IytHQ09TV1sXY09vX3c7a37bh2OPkrubn6Omi693t7p/w4fLzl/Xm9/ix+vb9Qv0DGJDewHMFDR4UV4hfwj8oUiyc1qrTQ0UpUEScyJCQrouFMmqUyHFYRVYOrYnUuLFksk25Ui5jSbOlS1knX85LsbImyZsfB1FM17OmTaAWPVKkFM2o059IJcFEuKyo05FRS02NF2zF1atQkebct8vqV6xZpSqF14LWq7P+Z8MCHcs2FVy4cm/SrSczUcS7cdOqFcpRE+C7eV3u/dcX4mHEghcffGT2sdEUf9JKPiivsmWfg1xE3cxZm+fPoAm11bsVaSHUljEbYr02akjYh2Xjmkh64m3ciBW1WD2w98LfwOMyIq7P+GRCp5NHdMR8nfOByKU/hVSda23X0LV/1U297neg2cXTJP+oO7XW6MOrv5yJIOGs6edPzzR86Pmb+c3H3iXuafWfSwGqNyAmBV73T4LiLVhfTPABKJ9+LEnIH3MO6gOhdhpqQlyH9XwoXYgGkQiPicmhCIqK67AInIuoCCYjbjQKg9+FGO4HTIGF8dijMWnd+FmOrwD+iZ2Q4pGjZIlMtuhOf0EOEp1l22jzZDhGjkfOYIZs6U2Ulq2QjoGHiDlMl0bNgxMiaubC5kj9UAgnlFaiVpBJicTpVp6PqZBQR7thY+RFFGnjwpYsImkNl4gYSiadIN3XTZ/PkMlTpQe+d8gL7gXo6Jn1MBWmnEKO6g5jiciCnKpuFofpn3+IBGusnMHZSkacNsNbY73OVhKwwVrKEbG97lisP2Ity6xtzvqqbLStFkmtNNZeG2m22go7bbedVgluuL6NWyGC5pJ7XLrGxseujexmxq258L4777j1ppsvvfeCuy++/XZLJXjx/uGnOQWf+1zCqqHLcMPiPtyuhxI4p7lwxQ0dTArGs67IcceQflxtyCLremnJizCK8nLOrFweMS4v113M7blKc82c3FxJWzrv3HNBgQAAIfkECQYAfwAsAAAAAHAAgAAAB/6AJX+DhIWGh4iJiouMjY6PhyMlJpCVlpeYmYUjnCOan6Chl52doqanqKSkqKytlqqqrrKzkbCrtLiutrC5vaa7tr7CmcCwgsPIj8W7yc2Ky8DO0oTQuyWe083VxdnJ28XH3b3f0OK55NDh5q3o6eu67e7vp/Hb6vOa9fb4oPrV9/xe+VsGMCCkgQQ3GXS0oQNCcJskLUzUYUPDh8DUkSoYsKJFhxhtadzIcZ1HixdDGouoqmQ2lDBTqtzIMpjJkzFBzuw0MqM4nDFl7pRIjSAlZ0GT6hzasxwyoEk/DuVZs5ovD1GjLt3Z9BsuqFmlTiU6SJ+rsGG3zuyKDhVatP5qVbJF5/JRw7dpx5L9g1ET3rdxQ86NVxfRX7yBMQ426wjs4aAd+E5d7I+R48c5B5lgWlUxNkOXMWcmdE1uZ5WFRD+ObMh00amFQquGyboWQsoIY89G/Ky0PtwDde+Gy8g34dMhhQ/PWnvRb+R9Ccke3pzR8ddDlS9XWsn4P+gPtW8f3f0b8MrSx2sl9h37TvHqP+aTV3Ys/PjVL3lvCT53+vjkfbIfJ+cxNsh0u+U3H3/uzXSfegrmY1yB9Tw4XoSf0NQgav8BiBKG/eyll4XbgRgKhfGQuJyJqdjXoYcNCTPiix6ySI+LB8II0zA4/oGgaDa6MmBwNI7XzZAVFv5JnTlItqPiY9MU1KRXSmIWJC2cJDKlUzkO54E4VCGyZTRV/rUOg4aMaVOXVs6zZppOlpkVP2Tats2TtAUEESJUsvnWQgQVZMKWT14pzZ18LkOiodOQo2WdPmrFaKPkFHQCM0pOmk08R8EZC42adlMPR5+yGSqYz4mZ5X+nokoknLpN5EhysoYiWK0h3oorJrDtWkmPvloHbLCJzEisc8Me21qyym5Ia7OJ9gqtne9NS62D1i4rbbb1bcutsdxK5m224H7LLLTlkntus+la2+6076K7rrKSjGtuteFq+2y+nobHr6r+/hstegIXS3DBAKeI8CJqlrrwM2093IijEiRPPGbFynCJcSNNblzemx5zvF/IlnhHsn6lnDzKZyp31/JCgQAAIfkECQYAfwAsAAAAAHAAgAAAB/6AEH+DhIWGh4iJiouMjY6Phw8QEZCVlpeYmYUPnA+an6Chl52cgqKnqKikpKmtrparq6+ztJGxrLW5r7exur6nvLe/w5nBsabEyY7GvMrOiszBz9OE0bwQyNTJ1sbaytzG2d654NHjuuXM2Oe06dHi7MDu7/Gp89zw9Zj3+Pqg/Nby+YMEkN7AYgXDbTro6ACChAqrSWKYCMEBhxCDZSMl0J/Fiw8z3trIseO5jxcxijy2iaW/lDBVruTYshk7BChjhpzZiaTGcTljyuQ5UWI4Ss+EKt1J1Ke5ZEGVgiTas2bAXwmkSmXK0ym4XFG1TqVadBC/V2LFcp3pNV2qtP5p165sm87kI4dw1ZIt+yejprxw5YqkO88uIsB5BWckfNZRWMRCEfSlyhggo8eQdQ6K0NTq4HyYM2smBIGt55mFREOWbGju6ZWFQquGydpWwsoJY89ODK00QNwFde+Oy8j3PeCWCckeXnsRP+SNBy3f3ZxR4dcihQ/XWr14Xex+lW9Xe8m4QbNktY+PjPD8ZKrq19PWhE0deIjx5YMEZd4levji6Tcaf9fcl1uAAqbUnSYjGRgcggk6lEp9VRlFVH76LfhPhf9dCGGCGoZSioPJSRehgrVAdw+G8oXoyl4srudiKzB+KOCM9qRno4DE6GhihDjO0h9+O27nzZAl/v4xHWJB+oLkikWqRk0+T7oVJZPecJJIldzECJgC43BoCJfMeAkXO6tQCeWPmTU5jDCIkAknm4j5Iw0iVtIZ2EAR2faUnmIxpE4+EchppoQUdYlnmVe6qU05W94JKEiOPloOoUhiWGmW7iA1Zi8fbhrmdYt2op2o5/wWqScBoprqgWNmYxFFy4RH64YQGXarda7tuo+HvhIEYLC1Dkuscz4eC02yypYKbLPO8gTtssZOS2J01l67ZrYWSsuttvN8C6474naLWrnvPfttjeWyK6676zLLLbzzypstvdlS6C266cLGr7mw/juInF8JXAjB1hjsJ7YKAwxpw4cgPCfEny6SS3EiFl+MccEaY0xwx7wyCvIiXI7syJMmnzxkyo/0xzIkxr1ciZYyw1yzP4EAACH5BAkGAH8ALAAAAABwAIAAAAf+gAx/g4SFhoeIiYqLjI2Oj4cLDA6QlZaXmJmFC5wLmp+goZednIKip6iopKSpra6Wq6uvs7SRsay1ua+3sbq+p7y3v8OZwbGmxMmOxrzKzorMwc/ThNG8DMjUydbG2srcxtneueDR47rlzAwN57Tp0eLtwO/w8qn03PH2mPj5+6D9rOn7BylgPYLFDIbbhNARgAAKF1aT1DBRAAAPIwbLRmrgv4sYIWq8xbGjx3MgMWYceWxTy38qY65k2dFls3YBUsoUSbNTyY3jdMqc2ZPixHCUng1dyrPoT3PJhC4NWdSnTYG/BEyd2rTnU3C5pG6lWtXooH6vxo7tSvNrulT+atWyZek23clHD+OuLWv2j0ZNeuPOHVmX3l1EgfUO1lgYrSOxiYcG8Fu1cUBGkCPvHOTA6VXC+jJr3kyIQdvPNAuNjjzZEF3ULAuJXh2ztS2FlhXKpq0YmumAuQ3u5i2X0W98wS8Tmk3c9qJ+yR0PYs7bOSPDsEcOJ77VunG72f8u57720vGDZ8tuJy85IXrKVdezr60Jm7rwEeXPDwnq/Mv08Y23H2n9XYOfbgIOqJJ3mpB0oHAJKvhQKvZZdVRR+u3HIEAWAohhhApuGEopDyo3nYQL1hIdPhnOJ6IrfLXI3outxAjigDTeo96NAxKz44kS5jiLf/nxyJ03RJr++Ad1iQnpS5IsGrkaNfpA+ZaUTXrDSSJWciNjYAOM06EhXTLzZVztrFJllEBq5uQwwiBSZpxtJvaPNIhcWadgBEl0G1R7jtWQOvo4MOeZE1bkZZ5mYvmmNuVwiWegIT0KaTmFJpmhpVq+kxSZvYDIqZjYMdrJdqOeA5ykngiYqqoIGtJANhdVtIx4tnIY0WG5Xvdar/x8CGxBAQ57a7HGPvdjstAsy6ypwj4LbU/SNotstSVKh222bG57IbXecktPuOK+Q+63qZ0LX7Th2niuu+TC266z3spbL73b2rttheCqu25s/qIba8CDzAkWwYUYbA3Cf2rLsMCRPnyIwnQwSgyquRYngnHGGh/MscYGf+xroyIv0mXJjkCJcspErvyIfy5DclzMlWxJs8w3/xMIACH5BAkGAH8ALAAAAABwAIAAAAf+gBV/g4SFhoeIiYqLjI2Oj4cSFYKQlZaXmJmEEpwTmp+goZecpJ6ip6iopKumqa6vkKusrbC1tpuyrLe7tbm+vMCnvrkTtMHHlcO+FMjNscq+xs7ThdDK0tTO1soU2NnB29bf0+HWlOPg5dbe6K7q2xPn7bDv4fLzqfXl9/ih+ur8+mX6B1CgP4LhmBn8hDDhQoYNrSkcxO6hIQIFIkqsJsmiogIEMGqENvHPqpIe/4AMmXHksJKyKATstzKkSJfLOMqaic6mz5s4Y+okRrPmz5ZBTw7Nic7oT6BJOcE0x5PX06tIo0qYCs+Z06sstZLiGq5iKgNgwWaNSrac2VD+X9OGFbt1qdu3mOTKXZu07Tu8kPTq5RvUb72qjzAK3ku3Lq6GxTQtFkwYp+F/KB1NXlzZ5WWCgONuflrgzwSxnxGaFT366KAKp/vaHdkNEevWrglVkP1YayHco0sbKjwbZ6HbwH0KPxQ7YmqNx5NzVhTPeXGX0aUPZkSh4fOI2bWnXb6oeb3vDcOLxwrJfDn0CNWvz/1o9zv4BOXPt0m+vjr8/+i3H0aZuPfSdSMJuF9/lRSzUW9RKTgfg5bYdyCESUm4HoWXdMfUII1pKB6HmHxoEl0iakciJhN4KBWC0BGCnIqvNAegPilKt+Inp91YT47J7QiKPCHKOCBpxxT+OciMOiaJopFHKneMgcZBGaVNyDgYoZVHClmLhVUueSU6LibI5YbzwIbdmdp9E1CZ8bGJm5e7SOANnDjKOZoB7ZAyE5g/6jkZPjshomaeYs4pEFGI4LkNkD4tNIw3VCoDKYGScpNIpblA6hFViFgA6C+C8pfSietsKk6pdKLzTiKjkqJgAa26+k5AF1ApYK191hOPoZ2eyes8BM1kXnjDEopQZq9xkl2yykJmKC0gndrISJFZC4pl2kKEE2LdJhJVtuE+IhZg5SpZ7iLqrivuk+4q0m68w8FLbyT23gsjePriK1a//voG8L7pDYxhUAYfHKbB8/bbsL4P3xsxvRNex1uxuxevm3G5Lf6bMCGcFvwxyBmObIij+ZlsyKH8qlxvyy4bEvKjMU+bcs3AIoozIjMHuzN16vzMSHU0C11e0UYvEqusSTuCctP1jQo1JHBOXYmLVltyWtYVcv1QIAAh+QQJBgB/ACwAAAAAcACAAAAH/oAhf4OEhYaHiImKi4yNjo+HHyEikJWWl5iZhR+cIJqfoKGXnKSCoqeoqKSrnqmur5Wrsh+wtbaRs6u3u7W5s7zAp765wcWZw7OmxsuOyL7M0IrOw9HVhNO+IcrWy9jI3MzeyNvgu+LT5bznztrptuvT5O7C8PHzqfXe8veY+fr8oPxh2wcQkkB7BY8dHFeoVUJGGDQsZHhN0sNEGjBEnDhs2yqCADNqlMgxl8ePINOJ1LixZLJNLwGynNnS5UeYuRyW05CBJkuSNkvhzLbT50ygQS1WHEcpmlGfSIOenKYz2MqnP5MKXTowGAesRqPanCqu6queYKFq5UR2Hay0/ljFumzrFhVcsHJL0l2X8lHEu3HXKh3EURPgtHk57q3XF9FhuIknLvb36Orjpxr+rJ0skJHly2EHiUjK2V+7Q59BhyYUYuzQoIVUH85saO5rm4VSy4aaSPFtl7l3Q1YEorXA0geDC8fLyHg+5J0J6V4+0hGI579LKqe+2jo86JSlc8dcyfk/rrDFj+dtyTy77IXVrz+qECHhtdvnV8+k7T163PLpFxEo7skCXj756UcbgUT9B1yACqoS031aJTjfgqL0txWFSVm4Hob0sAXfRB6OB6KEB9ZTIncnppIiPCtS12Iv+EF4YTGCxbjcjLBcV6GN8xlT4yDTCcfjLgUu/qSjauAkGR6RN5bjpIpAymbNPlOes+Rw3Hxg1iBZYrMlWByUs6EhYX5TJWDuGIhIms+sydw8s3z5B5yyjDkTQL7YWReUsxVEES5iyknTQ+zsI0KaS2ZwkWaFEkqNnEfSKU4iU5aYgaOPctjVISQk6WGl/NTTFJq/QEgqn4z1pot8qwpqGqacKBerrAJ9eRqUnTLCkZ29GuRbsPUNS2wsHR77iFbAKjuiks4ukmO00gxJraTpXYstgNrWZm23nnILbrgPjkuuduaeG1+607L7LbjtmhvvuPPC+2639eJ7r7b58rvvtRpmmy6kAg9MMLoGF4JnpAmztm7Dz3oDsatPOE6MKoIW0wpjxtVqybG0l368SHEMi5yIj2qa3FzKKq9MTMuOBEwKzJC4R3N5M99cyXU6t9dzQYEAACH5BAkGAH8ALAAAAABwAIAAAAf+gDV/g4SFhoeIiYqLjI2Oj4c0NTaQlZaXmJmFNJw0mp+goZednIKip6iopKSpra6Wq6uvs7SRsay1ua+3sbq+p7y3v8OZwbGmxMmOxrzKzorMwc/ThNG8NcjUydbG2srcxtneueDR47rlzNjntOnR4uzA7u/xqfPc8PWY9/j6oPzW8vmDBJDewGIFw2066AiGjIQKq0limEgGDIcQg2UjJdCfxYsPM97ayLHjuY8XMYo8tomlvxgpY4ZcybFlM3YyUMZUSbMTSY3jdO7k2XOixHCUnsEcunNm0Z/mkgllCrKoT5sBf81YSrWp1VJYweWa2rXqV6jpXnEtO9RpT7T+aVGtZdv2q9FBBU0+ikGWbkq3NOHe0zTXb92zYfnpRVTY8GGrggE+ktHYcdM/iI+uZNTX8uU/Np4mhrjuUGfPnwfVCDxaZKHKqJnKsJUxcsZCp2PLTFS79W1CuXWDhLYaoG2IuIXTnb2o+L3jCZMrL8uckWLfyIFPp07QHfSC0rfLruS8n+ae4cWnhlReHfbo2tW3RWgQ79f08odnwub+PE38+VW3X0T2WQWgfAJq0t5V/m0WX35/qeJSgUUdqF6CoPDHIIXoPQihQ67U1KBrHkKIoTzfSVZigLWkyI+F4p04i10wbifjLvetiOAwNOqoXgzE5DhIcLHdmMuC8A3++aE3SL7oY2x8ndPkPDV6Rk0+U5ZTpV9G/sJJIllas2VZMcwwzoaGhNnNk3QBec4qWA7GZlddftMLImreqaRlbtYjDSJx7elXlP4QaIhYc6bUZ6Hh5GODmlvW6Q03vDFTo6RnInrIlBbmRNF7ExbyqDA6YsrOPEmlqecfQpkaz3OVdhKeq35eh+eX2hH6aawqppkNZbta91uwmoi0GLHQrHQssodWyOwjQj67SI/SJmtgtdY6iy2g0W4Laq/efutkuOLKSe6Iw56LWbfkUquuu+fC2y674cpbL73e2psvvtvq2y+/2PqLrYYdqosueAY362DCqqbLMCF5ivkwtwg5T0yxuRZvOm7Gt7rDsbBafgyyxCJPm2fJy0SFciNZrszeTS47QrCsMb+MS802e4IzLDrvTJ7PBwUCACH5BAkGAH8ALAAAAABwAIAAAAf+gEJ/g4SFhoeIiYqLjI2Oj4dBQoKQlZaXmJmEQZxBmp+goZednJSip6inpKSpra6Wq6uvs7SRsay1ua+3sbq+qry9v8OYwbGmxMmNxrzKzorMwc/Tm9G3k9TP1sbZytvGyN2539HiuuTM2Oaz6NHh68Dt6fCp8tvv9MX21vj5lfv8/H0C6E6gJoLzNhl05OMHQnCFSi1M9MNHw4fBkJHq56+iRYcYr0XcyNGcR4sXQx4buaokNZQwU6rcyPIWvB8nY4Kc2UkjxG45Y8rkKakmL3XOhCrdSdSnNWVBlX4k2tNoQl1ApEplytMpuVxRtU6lWrSavFdixXKd6bVdqrT+adeqbNvOJcOwcFHKDUnXnqa8cPdi7CvP7iHAeQU/JLzvEV7EOv+QZQyQ0WPIMH8MEtLU6mJ8lzFnLsR5rueQhURD1mzItFmihUKr1pto8GmMsWcnhlZ6H2WEuXXHZdS78O2HwYVrZc3I93HghGTrZr6s7nOCyZUvrVQ84Gue2bVHttT95yCynqKL35rp3vXK6tcLpU6+fMv3jePLH/3JftXvM4W3H32Z+Pcbdvrt9xEqIgGokoDyEdhfcQfCN4h0s0kICk0OopagghqGIlGHuH04YC0V5nehgvz5gh6E64XoyosmRjgMjSuyiBIxZMGonIwoglejct3459eQGZr+Y6RbSIpGDT5LfuMjYkC6mN4hUZbTZF5AiPMflir+gaFU69wH5llbsgePTYhkKUyOkPkjDSLoTDmfQOa1to2dMC2UDpRZ8lllN3vSycyUg3opZZtzwqlToop+g88Q9kEIqTnGnYmLow1NVFumtnSS3KX0ANRPacGRWip0hiAlpg+eVodcrBvaRutBrt0KC2y6QtJjr47gCCw0vw5LLFXGLiJssnoiy6yhzj7bLK/S4ndktSTOiu15xW67bLXfShvus+MyW26y5xqb7rDrAttur+/qOkm023IrZL3WLopvqx7uy6+2/k4bZsACM0kwo9cejHCdCivLcMMOFwqxsm4hThyslhY3smTGkPjHccflfcydLCKPzEnJo1yJcscrGxQIACH5BAkGAH8ALAAAAABwAIAAAAf+gDt/g4SFhoeIiYqLjI2Oj4c6O4KQlZaXmJmEOpw6mp+goZednJSip6inpKSpra6Wq6uvs7SRsay1ua+3sbq+qry9v8OYwbGmxMmNxrzKzorMwc/Tm9G3k9TP1sbZytvGyN2539HiuuTM2Oaz6NHh68Dt6fCp8tvv9MX21vj5lfv8/H0C6E6gJoLzNhl0dAMHQnCFSi1MhONGw4fBkJHq56+iRYcYr0XcyNGcR4sXQx4buaokNZQwU6rcyPIWPBwnY4Kc2UkjxG45Y8rkKakmL3XOhCrdSdSnNWVBlX4k2tNoQl05pEplytMpuVxRtU6lWrSavFdixXKd6bVdqrT+adeqbNvOJcOwcFHKDUnXnqa8cPdi7CvP7iHAeQU/JLzvEV7EOv+QZQyQ0WPIMHEM2tHU6mJ8lzFnLsR5rueQhURD1mzItFmihUKr1pto8GmMsWcnhlZ6H2WEuXXHZdS78O2HwYVrZc3I93HghGTrZr6s7nOCyZUvrVQ84Gue2bVHttT95yCynqKL35rp3vXK6tcLpU6+fMv3jePLH/3JftXvM4W3H32Z+Pcbdvrt9xEqIgGokoDyEdhfcQfCN4h0s0kICk0OopagghqGIlGHuH04YC0V5nehgvz5gh6E64XoyosmRjgMjSuyiBIxZMGonIwoglejct3459eQGZr+Y6RbSIpGDT5LfuMjYkC6mN4hUZbTZF45iPMflir+gaFU69wH5llbsgePTYhkKUyOkPkjDSLoTDmfQOa1to2dMC2UDj48ZMlnld3sSSczUxLqpZRtzgmnToou+g0+PdgHYaTmGHcmLo82NFFtmtrSSXKY0gNQP6UFV6qp0BmClJg3fFodcrJuaFutB7mGKyyw7QpJj746gmOw0ABLbLFUHbvIsMrqmWyzhz4LrbO9TovfkdaSSGu25xnLLbPWgjutuNCS26y5yqJ7rLrEshusu77Cu+sk0nLbrZD2Xstovq56yG+/2/5LbZgCD8xkwY1ii3DCdS68bMMOP2xoxMsiukmxsFpe3MiSGkPiX8celwcyd7KMTDInJo9yZcoes2xQIAA7;rounded=1;strokeColor=light-dark(#000000,#5881BA);strokeWidth=2;fontFamily=Shantell Sans;fontSource=https://fonts.googleapis.com/css?family=Shantell+Sans;fontSize=18;fontColor=light-dark(#000000, #b8b8ba);fillColor=light-dark(#2B5CA8,transparent);" parent="1" vertex="1">
                    <mxGeometry x="200" y="114" width="52.5" height="60" as="geometry"/>
                </mxCell>
                <mxCell id="6" value="&lt;font style=&quot;color: light-dark(rgb(255, 255, 255), rgb(192, 192, 192));&quot;&gt;Local provider&lt;/font&gt;" style="rounded=0;whiteSpace=wrap;html=1;strokeColor=light-dark(#000000,#5881BA);strokeWidth=2;fontFamily=Shantell Sans;fontSource=https://fonts.googleapis.com/css?family=Shantell+Sans;fontSize=18;fontColor=light-dark(#000000, #b8b8ba);fillColor=light-dark(#2B5CA8,transparent);" parent="1" vertex="1">
                    <mxGeometry x="294" y="181" width="153" height="60" as="geometry"/>
                </mxCell>
                <mxCell id="7" value="art_of_war.txt" style="shape=note;whiteSpace=wrap;html=1;backgroundOutline=1;darkOpacity=0.05;rounded=1;strokeColor=light-dark(#000000,#5881BA);strokeWidth=2;fontFamily=Shantell Sans;fontSource=https://fonts.googleapis.com/css?family=Shantell+Sans;fontSize=18;fontColor=light-dark(#000000, #b8b8ba);fillColor=light-dark(#FFFFFF,transparent);" parent="1" vertex="1">
                    <mxGeometry x="766" y="148" width="165" height="100" as="geometry"/>
                </mxCell>
                <mxCell id="8" value="" style="endArrow=classic;html=1;strokeColor=light-dark(#2B5CA8,#5881BA);strokeWidth=2;fontFamily=Shantell Sans;fontSource=https://fonts.googleapis.com/css?family=Shantell+Sans;fontSize=18;fontColor=light-dark(#000000, #FFFFFF);endSize=12;" parent="1" edge="1">
                    <mxGeometry width="50" height="50" relative="1" as="geometry">
                        <mxPoint x="-19" y="200.5" as="sourcePoint"/>
                        <mxPoint x="176" y="201" as="targetPoint"/>
                    </mxGeometry>
                </mxCell>
                <mxCell id="9" value="Configures" style="text;strokeColor=none;align=center;fillColor=none;html=1;verticalAlign=middle;whiteSpace=wrap;rounded=0;fontFamily=Shantell Sans;fontSource=https://fonts.googleapis.com/css?family=Shantell+Sans;fontSize=18;fontColor=light-dark(#000000, #b8b8ba);" parent="1" vertex="1">
                    <mxGeometry x="42.00216796875" y="163.99672973632812" width="60" height="30" as="geometry"/>
                </mxCell>
                <mxCell id="10" value="" style="endArrow=classic;html=1;strokeColor=light-dark(#2B5CA8,#5881BA);strokeWidth=2;fontFamily=Shantell Sans;fontSource=https://fonts.googleapis.com/css?family=Shantell+Sans;fontSize=18;fontColor=light-dark(#000000, #FFFFFF);endSize=12;dashed=1;" parent="1" edge="1">
                    <mxGeometry width="50" height="50" relative="1" as="geometry">
                        <mxPoint x="478" y="210.5" as="sourcePoint"/>
                        <mxPoint x="751" y="210.5" as="targetPoint"/>
                    </mxGeometry>
                </mxCell>
                <mxCell id="11" value="Manages" style="text;strokeColor=none;align=center;fillColor=none;html=1;verticalAlign=middle;whiteSpace=wrap;rounded=0;fontFamily=Shantell Sans;fontSource=https://fonts.googleapis.com/css?family=Shantell+Sans;fontSize=18;fontColor=light-dark(#000000, #b8b8ba);" parent="1" vertex="1">
                    <mxGeometry x="612.00216796875" y="171.99672973632812" width="60" height="30" as="geometry"/>
                </mxCell>
            </root>
        </mxGraphModel>
    </diagram>
</mxfile>